<svg width="600" height="350" viewBox="0 0 600 350" fill="none" xmlns="http://www.w3.org/2000/svg">
<rect width="600" height="350" fill="white"/>
<path d="M319.919 97.6331L319.905 97.6363H319.889C315.84 98.5644 312.382 100.435 309.716 102.898C307.357 105.078 305.626 107.714 304.668 110.555C303.724 113.353 303.524 116.368 304.208 119.352C304.874 122.258 306.391 125.17 308.891 127.875C310.86 130.007 313.28 131.831 315.947 133.274C318.72 134.775 321.74 135.856 324.782 136.439L326.514 136.771L327.484 138.262C331.547 144.509 335.931 154.029 337.929 163.478C339.54 171.092 339.621 178.776 336.85 185.013V185.029C334.447 190.434 329.233 195.655 323.47 199.144L323.463 199.132C319.772 201.365 315.774 202.937 312.011 203.475L324.825 259.344L324.828 259.357V259.374C325.61 262.798 324.928 266.223 323.191 268.993C321.449 271.773 318.655 273.885 315.224 274.674L315.211 274.677H315.194C311.761 275.458 308.323 274.781 305.544 273.037C302.781 271.304 300.677 268.516 299.885 265.062L286.536 206.87C281.336 216.139 275.715 243.626 272.876 257.51C272.092 261.345 271.504 264.222 271.214 265.361C270.338 268.803 268.165 271.534 265.354 273.205C262.545 274.874 259.096 275.463 255.678 274.615H255.645C252.224 273.741 249.474 271.556 247.797 268.73C246.126 265.915 245.527 262.464 246.399 259.047C248.53 250.67 250.591 241.423 252.787 231.567C258.616 205.404 265.368 175.097 274.019 155.729C275.829 151.679 277.494 148.104 279.434 144.784C280.921 142.239 282.586 139.797 284.614 137.346C282.104 133.74 280.413 129.852 279.465 125.831C277.783 118.693 278.487 111.194 281.138 104.182C283.75 97.2721 288.251 90.8357 294.207 85.7083C299.824 80.8727 306.758 77.174 314.648 75.3117L314.647 75.308L314.663 75.3041H314.68C317.737 74.5836 320.81 75.1782 323.307 76.7202C325.806 78.2637 327.716 80.75 328.444 83.8105V83.8268L328.448 83.8431L328.451 83.857C329.172 86.9204 328.578 89.9956 327.034 92.4935C325.488 94.9948 322.999 96.9052 319.935 97.6326H319.919L319.919 97.6331ZM318.015 89.5269C318.868 89.3243 319.553 88.8059 319.97 88.1316C320.389 87.4535 320.547 86.6045 320.345 85.7455L320.342 85.7317L320.341 85.7308L320.338 85.7317C320.136 84.8835 319.618 84.2012 318.944 83.785C318.273 83.3699 317.433 83.2114 316.583 83.4073L316.584 83.4108L316.568 83.4147H316.552C310.04 84.9496 304.303 88.0132 299.643 92.0245C294.729 96.2554 291.036 101.511 288.918 107.113C286.839 112.612 286.275 118.445 287.571 123.944C288.473 127.769 290.298 131.461 293.166 134.793L295.601 137.622L293.036 140.36C290.388 143.185 288.38 145.986 286.628 148.984C284.788 152.133 283.258 155.416 281.605 159.115C273.284 177.743 266.633 207.591 260.893 233.358C258.575 243.762 256.4 253.524 254.472 261.099C254.165 262.302 254.374 263.513 254.959 264.499C255.54 265.477 256.499 266.236 257.696 266.542L257.694 266.549C258.91 266.842 260.13 266.632 261.123 266.043C262.085 265.471 262.832 264.52 263.14 263.31C263.506 261.873 264.034 259.291 264.737 255.85C268.084 239.483 275.091 205.21 282.73 198.269C286.045 195.256 289.372 195.071 292.639 198.666L293.615 200.538L307.991 263.206C308.27 264.422 309.006 265.4 309.971 266.006C310.937 266.612 312.142 266.846 313.356 266.575L313.355 266.571L313.368 266.568C314.58 266.289 315.558 265.557 316.16 264.598C316.764 263.635 317 262.431 316.726 261.212L316.722 261.213L316.719 261.2L302.723 200.174L301.228 193.656L307.72 195.193C310.745 195.909 315.074 194.511 319.173 192.03V192.014C323.619 189.322 327.562 185.473 329.265 181.644L329.271 181.646C331.238 177.205 331.08 171.263 329.791 165.171C328.164 157.477 324.753 149.729 321.416 144.218C318.164 143.429 314.971 142.202 312.008 140.599C308.546 138.725 305.378 136.33 302.77 133.507C299.245 129.691 297.081 125.482 296.102 121.208C295.067 116.691 295.367 112.138 296.79 107.918C298.198 103.74 300.7 99.9048 304.084 96.7777C307.766 93.376 312.503 90.8007 318.016 89.534L318.015 89.5268L318.015 89.5269Z" fill="#212121"/>
<path d="M307.553 190.601C307.476 190.646 307.397 190.688 307.317 190.728C307.111 190.866 306.931 191.148 306.798 191.498C306.588 192.048 306.545 192.654 306.691 193.164C306.775 193.457 306.947 193.728 307.206 193.952C307.567 194.264 308.096 194.522 308.802 194.697C311.724 195.423 316.174 194.252 320.347 191.707C324.156 189.384 327.555 185.962 329.183 181.822C330.019 179.683 332.431 178.626 334.571 179.462C336.71 180.298 337.767 182.711 336.931 184.85C334.584 190.817 329.885 195.628 324.677 198.804C318.69 202.455 311.812 204.011 306.816 202.771C304.783 202.265 303.097 201.383 301.77 200.235C300.234 198.907 299.205 197.262 298.683 195.443C298.045 193.222 298.187 190.714 299.017 188.536C299.601 187.006 300.529 185.605 301.778 184.517L308.749 154.584C309.27 152.346 311.508 150.954 313.746 151.475C314.812 151.723 315.685 152.36 316.252 153.201C324.053 163.417 324.133 171.669 321.022 178.07C318.05 184.184 312.183 188.197 307.553 190.601L307.553 190.601ZM314.3 167.443L312.151 176.674C312.685 175.977 313.154 175.238 313.534 174.457C314.48 172.51 314.866 170.191 314.3 167.443V167.443Z" fill="#212121"/>
<path d="M342.386 97.776L342.387 97.7767C347.411 100.16 350.991 104.343 352.717 109.18C354.444 114.019 354.323 119.52 351.948 124.538C350.483 127.625 348.326 130.187 345.726 132.101C343.081 134.048 339.971 135.321 336.657 135.79C333.567 136.228 330.182 135.803 327.084 134.71C323.984 133.618 321.095 131.83 318.992 129.54C316.261 126.568 314.504 122.854 313.909 118.927C313.332 115.115 313.847 111.091 315.626 107.338L315.626 107.337C318.008 102.313 322.191 98.732 327.03 97.005C331.868 95.2779 337.369 95.3984 342.386 97.776V97.776ZM338.837 105.296C335.899 103.904 332.672 103.836 329.829 104.851C326.987 105.865 324.534 107.958 323.146 110.886L323.146 110.887C322.106 113.082 321.806 115.445 322.146 117.689C322.495 120 323.521 122.176 325.112 123.908C326.28 125.179 327.975 126.203 329.851 126.865C331.749 127.534 333.756 127.803 335.518 127.554C337.445 127.281 339.26 126.536 340.81 125.395C342.318 124.285 343.572 122.793 344.428 120.989C345.818 118.052 345.886 114.824 344.871 111.98C343.857 109.138 341.765 106.685 338.838 105.296L338.837 105.296L338.837 105.296Z" fill="#212121"/>
</svg>
