<svg width="600" height="350" viewBox="0 0 600 350" fill="none" xmlns="http://www.w3.org/2000/svg">
<rect width="600" height="350" fill="white"/>
<path d="M298.273 186.644L297.616 185.986L283.698 172.069L258.164 197.575H309.205L298.273 186.644ZM311.534 174.397L299.917 185.986L300.575 186.616V186.644L311.534 197.575H334.741L311.534 174.397ZM317.891 146.561C312.767 146.561 308.603 150.725 308.603 155.848C308.603 160.998 312.767 165.136 317.891 165.136C323.041 165.136 327.206 160.998 327.206 155.848C327.205 150.725 323.041 146.561 317.891 146.561ZM311.534 174.397L299.917 185.986L300.575 186.616V186.644L311.534 197.575H334.741L311.534 174.397ZM317.891 146.561C312.767 146.561 308.603 150.725 308.603 155.848C308.603 160.998 312.767 165.136 317.891 165.136C323.041 165.136 327.206 160.998 327.206 155.848C327.205 150.725 323.041 146.561 317.891 146.561ZM298.273 186.644L297.616 185.986L283.698 172.069L258.164 197.575H309.205L298.273 186.644ZM311.534 174.397L299.917 185.986L300.575 186.616V186.644L311.534 197.575H334.741L311.534 174.397ZM317.891 146.561C312.767 146.561 308.603 150.725 308.603 155.848C308.603 160.998 312.767 165.136 317.891 165.136C323.041 165.136 327.206 160.998 327.206 155.848C327.205 150.725 323.041 146.561 317.891 146.561ZM298.273 186.644L297.616 185.986L283.698 172.069L258.164 197.575H309.205L298.273 186.644ZM342.877 219.219H259.808L222.109 243.52V254.862H380.712V242.698L342.877 219.219ZM241.972 240.48L262.219 227.439H340.547L361.561 240.48H241.972ZM349.589 121.603H250.411L200 95V244.506L250.411 217.903H349.589L400 244.506V95L349.589 121.603ZM246.028 210.917L208.219 230.862V108.644L246.027 128.589V210.917H246.028ZM254.247 129.822H345.781V209.684H254.247V129.822ZM391.781 230.862L354 210.945V128.561L391.781 108.644V230.862V230.862Z" fill="#2D2D2D"/>
</svg>
