<svg width="600" height="350" viewBox="0 0 600 350" fill="none" xmlns="http://www.w3.org/2000/svg">
<rect width="600" height="350" fill="white"/>
<path d="M326.741 104.509C313.753 91.525 296.487 84.375 278.125 84.375C259.759 84.375 242.497 91.525 229.509 104.509C216.525 117.494 209.375 134.756 209.375 153.122C209.375 171.488 216.525 188.75 229.509 201.734C242.494 214.719 259.759 221.869 278.125 221.869C296.491 221.869 313.753 214.719 326.741 201.734C353.544 174.931 353.544 131.316 326.741 104.509ZM322.322 197.316C310.519 209.119 294.822 215.619 278.125 215.619C261.428 215.619 245.734 209.119 233.928 197.316C222.125 185.513 215.625 169.819 215.625 153.122C215.625 136.425 222.125 120.731 233.928 108.928C245.734 97.125 261.428 90.625 278.125 90.625C294.819 90.625 310.512 97.125 322.322 108.928C346.687 133.297 346.687 172.947 322.322 197.316Z" fill="black"/>
<path d="M395.413 248.319L356.109 209.009C354.888 207.787 352.913 207.787 351.691 209.009L349.478 211.222L339.581 201.328C363.641 170.697 361.584 126.1 333.369 97.8813C318.609 83.125 298.991 75 278.125 75C257.256 75 237.638 83.125 222.881 97.8813C208.128 112.634 200 132.253 200 153.122C200 173.991 208.128 193.606 222.878 208.362C237.638 223.122 257.256 231.244 278.125 231.244C295.831 231.244 312.628 225.375 326.331 214.584L336.222 224.481L334.012 226.691C332.791 227.913 332.791 229.888 334.012 231.109L373.325 270.422C376.278 273.372 380.203 275 384.378 275C388.553 275 392.475 273.372 395.422 270.422C398.372 267.472 400 263.547 400 259.372C400 255.197 398.372 251.275 395.422 248.325C395.419 248.322 395.416 248.322 395.413 248.319ZM227.297 203.944C213.728 190.369 206.25 172.322 206.25 153.122C206.25 133.922 213.728 115.875 227.3 102.3C240.878 88.725 258.925 81.25 278.125 81.25C297.322 81.25 315.372 88.725 328.95 102.3C356.972 130.325 356.972 175.919 328.95 203.941C315.372 217.519 297.322 224.994 278.125 224.994C258.925 224.994 240.875 217.519 227.297 203.944ZM331.103 210.519C331.866 209.813 332.628 209.1 333.369 208.362C334.109 207.625 334.816 206.866 335.519 206.1L345.062 215.641L340.644 220.062L331.103 210.519ZM391 266.003C387.462 269.553 381.287 269.541 377.744 266.003L340.641 228.9L342.847 226.691H342.85C342.85 226.691 342.85 226.691 342.853 226.688L351.675 217.862C351.678 217.859 351.684 217.859 351.691 217.853C351.697 217.847 351.697 217.841 351.7 217.838L353.9 215.638L390.997 252.741C391 252.744 391 252.747 391.003 252.75C392.775 254.516 393.75 256.869 393.75 259.372C393.75 261.878 392.775 264.234 391 266.003Z" fill="black"/>
<path d="M317.556 171.419C317.528 171.222 317.506 171.031 317.447 170.844C317.384 170.663 317.29 170.503 317.2 170.334C317.09 170.141 316.987 169.959 316.84 169.794C316.79 169.734 316.775 169.666 316.722 169.613L292.831 145.719C293.522 143.116 293.912 140.413 293.912 137.647C293.912 129.3 290.662 121.45 284.759 115.553C278.856 109.647 271.009 106.397 262.659 106.397C254.312 106.397 246.462 109.647 240.562 115.553C228.381 127.734 228.381 147.559 240.565 159.75C246.469 165.653 254.312 168.903 262.659 168.903C265.428 168.903 268.131 168.513 270.734 167.819L275.847 172.934C276.434 173.522 277.225 173.85 278.056 173.85H278.059L280.112 173.847V175.897C280.112 176.728 280.44 177.525 281.028 178.109L282.097 179.178C282.684 179.766 283.475 180.094 284.306 180.094H289.487V185.275C289.487 186.106 289.815 186.9 290.403 187.484L294.656 191.738C294.684 191.766 294.722 191.775 294.747 191.8C294.956 191.997 295.203 192.141 295.459 192.272C295.553 192.322 295.634 192.394 295.731 192.434C296.084 192.572 296.465 192.653 296.862 192.653C296.862 192.653 296.862 192.653 296.865 192.653C296.865 192.653 296.865 192.653 296.869 192.653C297.012 192.653 297.162 192.644 297.309 192.622L312.722 190.413C312.825 190.397 312.906 190.338 313.006 190.313C313.234 190.253 313.447 190.184 313.653 190.081C313.803 190.009 313.94 189.928 314.072 189.834C314.256 189.706 314.406 189.559 314.556 189.394C314.669 189.272 314.772 189.156 314.865 189.019C314.984 188.838 315.065 188.641 315.15 188.434C315.215 188.269 315.278 188.116 315.315 187.944C315.328 187.878 315.369 187.831 315.378 187.763L317.612 172.266C317.625 172.191 317.594 172.119 317.6 172.044C317.609 171.834 317.584 171.634 317.556 171.419ZM244.984 155.334C235.237 145.584 235.237 129.725 244.981 119.978C249.706 115.253 255.984 112.653 262.659 112.653C269.34 112.653 275.615 115.253 280.34 119.978C285.062 124.7 287.662 130.978 287.662 137.653C287.662 144.334 285.062 150.609 280.337 155.334C275.615 160.056 269.337 162.656 262.659 162.656C255.981 162.656 249.703 160.056 244.984 155.334ZM286.362 173.847L286.365 170.725C286.365 169.894 286.037 169.097 285.45 168.513C284.862 167.928 284.069 167.597 283.24 167.597H283.237L279.35 167.603L277.112 165.366C279.897 163.909 282.475 162.038 284.756 159.753C287.04 157.472 288.919 154.888 290.375 152.106L311.194 172.928L309.515 184.563L297.969 186.216L295.737 183.984V176.972C295.737 175.244 294.34 173.847 292.612 173.847H286.362V173.847Z" fill="black"/>
<path d="M253.378 125.153H253.344C251.619 125.153 250.237 126.55 250.237 128.278C250.237 130.006 251.65 131.403 253.378 131.403C255.103 131.403 256.503 130.006 256.503 128.278C256.503 126.55 255.103 125.153 253.378 125.153Z" fill="black"/>
</svg>
